<?xml version="1.0" encoding="iso-8859-1"?>
<!-- Generator: Adobe Illustrator 19.0.0, SVG Export Plug-In . SVG Version: 6.00 Build 0)  -->
<svg version="1.1" id="Capa_1" xmlns="http://www.w3.org/2000/svg" xmlns:xlink="http://www.w3.org/1999/xlink" x="0px" y="0px"
	 viewBox="0 0 511 511" style="enable-background:new 0 0 511 511;" xml:space="preserve">
<g>
	<path d="M23.498,248H7.5c-4.142,0-7.5,3.358-7.5,7.5s3.358,7.5,7.5,7.5h15.998c4.142,0,7.5-3.358,7.5-7.5S27.64,248,23.498,248z"/>
	<path d="M455.498,248H310.479c-0.305-2.249-0.736-4.459-1.304-6.615l111.798-46.308c3.827-1.585,5.644-5.973,4.059-9.799
		c-1.585-3.827-5.973-5.643-9.799-4.059l-111.822,46.318c-1.138-1.943-2.386-3.813-3.745-5.596l136.5-136.5
		c2.929-2.929,2.929-7.678,0-10.606c-2.929-2.929-7.678-2.929-10.606,0l-136.5,136.5c-1.783-1.359-3.653-2.607-5.596-3.745
		l46.318-111.822c1.585-3.827-0.232-8.214-4.059-9.799c-3.828-1.585-8.214,0.231-9.799,4.059l-46.308,111.798
		c-2.156-0.568-4.366-0.999-6.615-1.304V55.502c0-4.142-3.358-7.5-7.5-7.5s-7.5,3.358-7.5,7.5v145.019
		c-2.25,0.305-4.459,0.736-6.615,1.304L195.077,90.027c-1.585-3.827-5.973-5.644-9.799-4.059c-3.827,1.585-5.644,5.973-4.059,9.799
		l46.318,111.822c-1.943,1.138-3.813,2.386-5.596,3.745l-136.5-136.5c-2.929-2.929-7.678-2.929-10.606,0
		c-2.929,2.929-2.929,7.678,0,10.606l136.5,136.5c-1.359,1.783-2.607,3.653-3.745,5.596L95.768,181.219
		c-3.826-1.584-8.214,0.232-9.799,4.059c-1.585,3.827,0.232,8.214,4.059,9.799l111.797,46.308c-0.567,2.156-0.998,4.366-1.304,6.615
		H55.502c-4.142,0-7.5,3.358-7.5,7.5s3.358,7.5,7.5,7.5h145.018c0.305,2.249,0.736,4.459,1.304,6.615L90.027,315.923
		c-3.827,1.585-5.644,5.973-4.059,9.799c1.196,2.888,3.989,4.632,6.932,4.632c0.957,0,1.929-0.184,2.867-0.573l111.822-46.319
		c1.138,1.943,2.386,3.813,3.745,5.596l-136.5,136.5c-2.929,2.929-2.929,7.678,0,10.606c1.464,1.464,3.384,2.197,5.303,2.197
		s3.839-0.732,5.303-2.197l136.5-136.5c1.783,1.359,3.653,2.607,5.596,3.745l-46.318,111.822c-1.585,3.827,0.232,8.214,4.059,9.799
		c0.939,0.389,1.911,0.573,2.867,0.573c2.943,0,5.736-1.744,6.932-4.632l46.308-111.798c2.156,0.567,4.365,0.998,6.615,1.304
		v145.019c0,4.142,3.358,7.5,7.5,7.5s7.5-3.358,7.5-7.5V310.479c2.25-0.305,4.459-0.736,6.615-1.304l46.308,111.798
		c1.196,2.888,3.989,4.632,6.932,4.632c0.957,0,1.929-0.184,2.867-0.573c3.827-1.585,5.644-5.973,4.059-9.799l-46.318-111.822
		c1.943-1.138,3.813-2.386,5.596-3.745l136.5,136.5c1.464,1.464,3.384,2.197,5.303,2.197s3.839-0.732,5.303-2.197
		c2.929-2.929,2.929-7.678,0-10.606l-136.5-136.5c1.358-1.783,2.606-3.653,3.745-5.596l111.822,46.319
		c0.938,0.389,1.911,0.573,2.867,0.573c2.943,0,5.736-1.744,6.932-4.632c1.585-3.827-0.232-8.214-4.059-9.799l-111.798-46.308
		c0.567-2.156,0.998-4.366,1.304-6.615h145.019c4.142,0,7.5-3.358,7.5-7.5S459.64,248,455.498,248z M255.5,296
		c-22.332,0-40.5-18.168-40.5-40.5s18.168-40.5,40.5-40.5s40.5,18.168,40.5,40.5S277.832,296,255.5,296z"/>
	<path d="M503.5,248h-15.997c-4.142,0-7.5,3.358-7.5,7.5s3.358,7.5,7.5,7.5H503.5c4.142,0,7.5-3.358,7.5-7.5S507.642,248,503.5,248z
		"/>
	<path d="M255.5,480.003c-4.142,0-7.5,3.358-7.5,7.5V503.5c0,4.142,3.358,7.5,7.5,7.5s7.5-3.358,7.5-7.5v-15.997
		C263,483.361,259.642,480.003,255.5,480.003z"/>
	<path d="M255.5,30.997c4.142,0,7.5-3.358,7.5-7.5V7.5c0-4.142-3.358-7.5-7.5-7.5S248,3.358,248,7.5v15.997
		C248,27.639,251.358,30.997,255.5,30.997z"/>
</g>
<g>
</g>
<g>
</g>
<g>
</g>
<g>
</g>
<g>
</g>
<g>
</g>
<g>
</g>
<g>
</g>
<g>
</g>
<g>
</g>
<g>
</g>
<g>
</g>
<g>
</g>
<g>
</g>
<g>
</g>
</svg>
